<?xml version="1.0" encoding="UTF-8" standalone="no"?>
<!-- Created with Inkscape (http://www.inkscape.org/) -->

<svg
   xmlns:dc="http://purl.org/dc/elements/1.1/"
   xmlns:cc="http://creativecommons.org/ns#"
   xmlns:rdf="http://www.w3.org/1999/02/22-rdf-syntax-ns#"
   xmlns:svg="http://www.w3.org/2000/svg"
   xmlns="http://www.w3.org/2000/svg"
   xmlns:sodipodi="http://sodipodi.sourceforge.net/DTD/sodipodi-0.dtd"
   xmlns:inkscape="http://www.inkscape.org/namespaces/inkscape"
   width="199.3566pc"
   height="138.21068pc"
   viewBox="0 0 843.94291 585.09188"
   version="1.1"
   id="svg8"
   inkscape:version="0.92.4 (5da689c313, 2019-01-14)"
   sodipodi:docname="icons.svg">
  <defs
     id="defs2">
    <filter
       style="color-interpolation-filters:sRGB"
       inkscape:label="Drop Shadow"
       id="filter6021"
       x="-0.5"
       y="-0.5"
       width="2"
       height="2">
      <feFlood
         flood-opacity="0.498039"
         flood-color="rgb(0,0,0)"
         result="flood"
         id="feFlood6011" />
      <feComposite
         in="flood"
         in2="SourceGraphic"
         operator="in"
         result="composite1"
         id="feComposite6013" />
      <feGaussianBlur
         in="composite1"
         stdDeviation="5"
         result="blur"
         id="feGaussianBlur6015" />
      <feOffset
         dx="10"
         dy="10"
         result="offset"
         id="feOffset6017" />
      <feComposite
         in="SourceGraphic"
         in2="offset"
         operator="over"
         result="composite2"
         id="feComposite6019" />
    </filter>
    <filter
       style="color-interpolation-filters:sRGB"
       inkscape:label="Drop Shadow"
       id="filter6033"
       width="2"
       height="2"
       x="-0.5"
       y="-0.5">
      <feFlood
         flood-opacity="0.498039"
         flood-color="rgb(0,0,0)"
         result="flood"
         id="feFlood6023" />
      <feComposite
         in="flood"
         in2="SourceGraphic"
         operator="in"
         result="composite1"
         id="feComposite6025" />
      <feGaussianBlur
         in="composite1"
         stdDeviation="5"
         result="blur"
         id="feGaussianBlur6027" />
      <feOffset
         dx="10"
         dy="10"
         result="offset"
         id="feOffset6029" />
      <feComposite
         in="SourceGraphic"
         in2="offset"
         operator="over"
         result="composite2"
         id="feComposite6031" />
    </filter>
    <filter
       style="color-interpolation-filters:sRGB"
       inkscape:label="Drop Shadow"
       id="filter6332">
      <feFlood
         flood-opacity="0.752941"
         flood-color="rgb(0,0,0)"
         result="flood"
         id="feFlood6322" />
      <feComposite
         in="flood"
         in2="SourceGraphic"
         operator="out"
         result="composite1"
         id="feComposite6324" />
      <feGaussianBlur
         in="composite1"
         stdDeviation="10"
         result="blur"
         id="feGaussianBlur6326" />
      <feOffset
         dx="10"
         dy="10"
         result="offset"
         id="feOffset6328" />
      <feComposite
         in="offset"
         in2="SourceGraphic"
         operator="atop"
         result="composite2"
         id="feComposite6330" />
    </filter>
  </defs>
  <sodipodi:namedview
     id="base"
     pagecolor="#ffffff"
     bordercolor="#666666"
     borderopacity="1.0"
     inkscape:pageopacity="0.0"
     inkscape:pageshadow="2"
     inkscape:zoom="0.1767767"
     inkscape:cx="1725.1395"
     inkscape:cy="1018.5727"
     inkscape:document-units="px"
     inkscape:current-layer="layer1"
     showgrid="false"
     inkscape:pagecheckerboard="true"
     showborder="true"
     units="pc"
     inkscape:window-width="1280"
     inkscape:window-height="962"
     inkscape:window-x="-8"
     inkscape:window-y="-8"
     inkscape:window-maximized="1"
     fit-margin-top="2.5"
     fit-margin-left="2.5"
     fit-margin-right="2.5"
     fit-margin-bottom="2.5" />
  <metadata
     id="metadata5">
    <rdf:RDF>
      <cc:Work
         rdf:about="">
        <dc:format>image/svg+xml</dc:format>
        <dc:type
           rdf:resource="http://purl.org/dc/dcmitype/StillImage" />
        <dc:title></dc:title>
      </cc:Work>
    </rdf:RDF>
  </metadata>
  <g
     inkscape:label="Layer 1"
     inkscape:groupmode="layer"
     id="layer1"
     transform="translate(55.484612,277.50856)">
    <g
       style="stroke-width:1.27659571"
       id="g1139"
       inkscape:label="Logo Light"
       transform="matrix(0.27634259,0,0,-0.27634259,187.26621,-487.46859)"
       inkscape:export-xdpi="299.94894"
       inkscape:export-ydpi="299.94894">
      <path
         inkscape:label="BG"
         inkscape:connector-curvature="0"
         id="path1119"
         d="m 1237.234,-1938.7536 v -287.2341 h 287.2341 v 287.2341 z m 306.383,0 v -287.2341 h 287.2341 v 287.2341 z m 306.383,0 v -287.2341 h 287.2341 v 287.2341 z m -612.766,-306.383 v -287.2341 h 287.2341 v 287.2341 z m 306.383,0 v -287.2341 h 287.2341 v 287.2341 z m 306.383,0 v -287.2341 h 287.2341 v 287.2341 z m -612.766,-306.383 v -287.234 h 287.2341 v 287.234 z m 306.383,0 v -287.234 h 287.2341 v 287.234 z m 306.383,0 v -287.234 h 287.2341 v 287.234 z"
         style="fill:#ffffff;fill-opacity:1;fill-rule:nonzero;stroke:none;stroke-width:1.27659571" />
      <path
         inkscape:connector-curvature="0"
         id="path1121"
         style="fill:#3a6ea5;fill-opacity:1;fill-rule:nonzero;stroke:none;stroke-width:1.27659571"
         d="m 2046.2618,-2652.6956 -49.4862,-65.2762 54.2211,-70.014 h -6.5797 l -51.0616,66.0648 -50.798,-66.0648 h -6.3201 l 53.9586,70.014 -49.2217,65.2762 h 6.8462 l 45.535,-61.327 46.5872,61.327 z"
         inkscape:label="x" />
      <path
         inkscape:connector-curvature="0"
         id="path1123"
         style="fill:#3a6ea5;fill-opacity:1;fill-rule:nonzero;stroke:none;stroke-width:1.27659571"
         d="m 1634.9376,-2745.083 c 2.3781,-7.8954 5.9408,-14.872 10.699,-20.9236 4.7532,-6.0556 10.6039,-10.8843 17.5599,-14.4782 6.956,-3.5998 15.0124,-5.3943 24.1712,-5.3943 8.9766,0 16.9429,1.7945 23.9009,5.3943 6.954,3.5939 12.8096,8.4226 17.5648,14.4782 4.7542,6.0516 8.3169,13.0282 10.697,20.9236 2.3752,7.8975 3.5657,16.1424 3.5657,24.7426 0,8.4236 -1.1905,16.5836 -3.5657,24.4791 -2.3801,7.8955 -5.9428,14.871 -10.697,20.9247 -4.7552,6.0546 -10.6108,10.9247 -17.5648,14.6084 -6.958,3.6867 -14.9243,5.5295 -23.9009,5.5295 -9.1588,0 -17.2152,-1.8428 -24.1712,-5.5295 -6.956,-3.6837 -12.8067,-8.5538 -17.5599,-14.6084 -4.7582,-6.0537 -8.3209,-13.0292 -10.699,-20.9247 -2.3791,-7.8955 -3.5686,-16.0555 -3.5686,-24.4791 0,-8.6002 1.1895,-16.8451 3.5686,-24.7426 m -4.8869,51.4594 c 2.6425,8.5094 6.5588,16.0101 11.7538,22.5039 5.192,6.4909 11.5745,11.7134 19.1486,15.6617 7.5681,3.9482 16.3753,5.9223 26.4146,5.9223 9.8571,0 18.5742,-1.9741 26.1463,-5.9223 7.5671,-3.9483 13.9546,-9.1708 19.1476,-15.6617 5.193,-6.4938 9.1122,-13.9945 11.7558,-22.5039 2.6405,-8.5134 3.9598,-17.4167 3.9598,-26.7168 0,-9.301 -1.3193,-18.2082 -3.9598,-26.7177 -2.6436,-8.5133 -6.5628,-16.013 -11.7558,-22.5039 -5.193,-6.4929 -11.5805,-11.672 -19.1476,-15.5284 -7.5721,-3.8574 -16.3764,-5.7911 -26.4127,-5.7911 -9.863,0 -18.5801,1.9337 -26.1482,5.7911 -7.5741,3.8564 -13.9566,9.0355 -19.1486,15.5284 -5.195,6.4909 -9.1113,13.9906 -11.7538,22.5039 -2.6406,8.5095 -3.9599,17.4167 -3.9599,26.7177 0,9.3001 1.3193,18.2034 3.9599,26.7168"
         inkscape:label="o2" />
      <path
         inkscape:connector-curvature="0"
         id="path1125"
         style="fill:#3a6ea5;fill-opacity:1;fill-rule:nonzero;stroke:none;stroke-width:1.27659571"
         d="m 1330.972,-2745.61 c 2.4548,-7.8945 6.0092,-14.8296 10.6602,-20.7934 4.6461,-5.9668 10.3967,-10.7037 17.241,-14.2127 6.8423,-3.5129 14.5611,-5.263 23.1603,-5.263 8.772,0 16.4533,1.7501 23.0321,5.263 6.5807,3.509 12.0184,8.2923 16.32,14.345 4.2967,6.0546 7.5421,13.0291 9.7403,20.9256 2.1913,7.8975 3.2889,16.1433 3.2889,24.7436 0,7.8945 -1.0118,15.7465 -3.0293,23.5561 -2.0166,7.8057 -5.1298,14.8257 -9.3425,21.0579 -4.2118,6.2254 -9.6071,11.3167 -16.1868,15.2649 -6.5827,3.9502 -14.5216,5.9243 -23.8227,5.9243 -16.4937,0 -29.74,-5.6598 -39.7449,-16.9784 -10.0008,-11.3186 -15.0023,-27.5971 -15.0023,-48.8248 0,-8.7779 1.226,-17.1097 3.6857,-25.0081 m -3.1586,55.0127 c 3.1586,12.281 9.385,22.196 18.686,29.743 9.3011,7.5441 21.1448,11.3186 35.5341,11.3186 9.3011,0 17.547,-1.9326 24.7446,-5.7901 7.1927,-3.8623 13.2029,-9.0394 18.0296,-15.5303 4.8228,-6.4939 8.5095,-14.04 11.0561,-22.6353 2.5416,-8.6012 3.8159,-17.6367 3.8159,-27.1105 0,-10.1815 -1.3167,-19.5704 -3.9482,-28.1657 -2.6305,-8.6003 -6.4504,-16.0151 -11.4499,-22.2404 -5.0014,-6.2323 -11.055,-11.1025 -18.1638,-14.6085 -7.1059,-3.509 -15.1336,-5.265 -24.0843,-5.265 -13.8622,0 -25.4888,3.7716 -34.8757,11.3186 -9.3889,7.5411 -15.8374,17.3713 -19.3444,29.4805 h -0.5271 v -37.904 h -5.2639 v 187.9359 h 5.2639 v -90.5468 z"
         inkscape:label="b" />
      <path
         inkscape:label="w2"
         inkscape:connector-curvature="0"
         id="path1127"
         style="fill:#3a6ea5;fill-opacity:1;fill-rule:nonzero;stroke:none;stroke-width:1.27659571"
         d="m 2085.7426,-2345.8358 -43.167,-135.7567 h -6.8433 l -42.1148,130.4756 h -0.5281 l -42.3754,-130.4756 h -7.3713 l -41.8513,135.7567 h 5.0014 l 40.271,-130.4755 h 0.5271 l 41.8523,130.4755 h 8.159 l 41.5887,-130.4755 h 0.5251 l 41.0627,130.4755 z" />
      <path
         inkscape:connector-curvature="0"
         id="path1129"
         style="fill:#3a6ea5;fill-opacity:1;fill-rule:nonzero;stroke:none;stroke-width:1.27659571"
         d="m 1634.9391,-2438.5426 c 2.3771,-7.9218 5.9408,-14.9223 10.698,-20.9959 4.7542,-6.0764 10.6049,-10.9218 17.5619,-14.5281 6.955,-3.6122 15.0114,-5.4128 24.1682,-5.4128 8.9786,0 16.9449,1.8006 23.9009,5.4128 6.955,3.6063 12.8106,8.4517 17.5658,14.5281 4.7533,6.0736 8.3199,13.0741 10.698,20.9959 2.3751,7.9246 3.5627,16.199 3.5627,24.8279 0,8.4536 -1.1876,16.6407 -3.5627,24.5644 -2.3781,7.9227 -5.9447,14.9223 -10.698,20.9968 -4.7552,6.0755 -10.6108,10.9615 -17.5658,14.6589 -6.956,3.6984 -14.9223,5.5476 -23.9009,5.5476 -9.1568,0 -17.2132,-1.8492 -24.1682,-5.5476 -6.957,-3.6974 -12.8077,-8.5834 -17.5619,-14.6589 -4.7572,-6.0745 -8.3209,-13.0741 -10.698,-20.9968 -2.3781,-7.9237 -3.5667,-16.1108 -3.5667,-24.5644 0,-8.6289 1.1886,-16.9033 3.5667,-24.8279 m -4.8869,51.6367 c 2.6405,8.5388 6.5578,16.0653 11.7528,22.5816 5.193,6.5132 11.5765,11.7538 19.1506,15.7156 7.5661,3.9629 16.3743,5.9428 26.4116,5.9428 9.8591,0 18.5742,-1.9799 26.1473,-5.9428 7.5681,-3.9618 13.9536,-9.2024 19.1476,-15.7156 5.192,-6.5163 9.1132,-14.0428 11.7538,-22.5816 2.6425,-8.5417 3.9618,-17.4767 3.9618,-26.8088 0,-9.3331 -1.3193,-18.2701 -3.9618,-26.8089 -2.6406,-8.5427 -6.5618,-16.0692 -11.7538,-22.5815 -5.194,-6.5163 -11.5795,-11.7132 -19.1476,-15.583 -7.5731,-3.8707 -16.3773,-5.81 -26.4127,-5.81 -9.862,0 -18.5801,1.9393 -26.1462,5.81 -7.5741,3.8698 -13.9576,9.0667 -19.1506,15.583 -5.195,6.5123 -9.1123,14.0388 -11.7528,22.5815 -2.6416,8.5388 -3.9619,17.4758 -3.9619,26.8089 0,9.3321 1.3203,18.2671 3.9619,26.8088"
         inkscape:label="o2" />
      <path
         inkscape:label="d"
         inkscape:connector-curvature="0"
         id="path1131"
         style="fill:#3a6ea5;fill-opacity:1;fill-rule:nonzero;stroke:none;stroke-width:1.27659571"
         d="m 1419.41,-2364.9834 c -10.0009,11.3567 -23.2512,17.036 -39.7429,17.036 -9.1284,0 -17.0238,-1.981 -23.6904,-5.9438 -6.6696,-3.9618 -12.1073,-9.0707 -16.321,-15.3185 -4.2089,-6.2528 -7.326,-13.296 -9.3426,-21.1305 -2.0215,-7.8365 -3.0263,-15.7157 -3.0263,-23.6374 0,-8.6299 1.0927,-16.9042 3.2899,-24.8279 2.1922,-7.9237 5.4367,-14.9233 9.7383,-20.9978 4.2987,-6.0745 9.7393,-10.8743 16.319,-14.3954 6.5808,-3.525 14.2561,-5.2811 23.0331,-5.2811 8.772,0 16.5352,1.7561 23.2926,5.2811 6.7544,3.5211 12.4576,8.2743 17.1096,14.2627 4.6481,5.9834 8.2005,12.9433 10.6603,20.865 2.4558,7.9247 3.6837,16.2872 3.6837,25.0934 0,21.3019 -4.9985,37.6356 -15.0033,48.9942 m 20.2692,71.9739 v -188.583 h -5.2659 v 38.0338 h -0.5241 c -3.514,-12.151 -9.9634,-22.015 -19.3474,-29.5822 -9.3879,-7.574 -21.0164,-11.3576 -34.8747,-11.3576 -8.9507,0 -16.9784,1.762 -24.0862,5.2821 -7.1059,3.5201 -13.1585,8.4061 -18.1609,14.6589 -5.0015,6.2478 -8.8184,13.6882 -11.4489,22.3181 -2.6335,8.6239 -3.9483,18.0472 -3.9483,28.2618 0,9.5075 1.2704,18.5741 3.816,27.204 2.5407,8.625 6.2264,16.1981 11.0541,22.7153 4.8257,6.5113 10.8339,11.7063 18.0316,15.5829 7.1917,3.8708 15.4385,5.8101 24.7426,5.8101 14.3854,0 26.231,-3.7885 35.5321,-11.3586 9.3001,-7.5731 15.5304,-17.5223 18.69,-29.8446 h 0.5241 v 90.859 z" />
      <path
         inkscape:label="n"
         inkscape:connector-curvature="0"
         id="path1133"
         style="fill:#3a6ea5;fill-opacity:1;fill-rule:nonzero;stroke:none;stroke-width:1.27659571"
         d="m 1947.5549,-2042.8243 v -33.4287 h 0.5261 c 1.226,5.2659 3.1981,10.0897 5.9224,14.4791 2.7183,4.3845 6.1405,8.2449 10.2664,11.5812 4.119,3.3303 8.9023,5.9194 14.3429,7.7642 5.4387,1.8428 11.4894,2.7637 18.1619,2.7637 7.016,0 13.4664,-1.0531 19.3463,-3.1595 5.878,-2.1044 10.9653,-5.2235 15.2669,-9.3435 4.2986,-4.1249 7.6339,-9.2122 10.0028,-15.2659 2.368,-6.0526 3.5534,-13.0291 3.5534,-20.9266 v -89.7552 h -5.2649 v 88.9656 c 0,7.8974 -1.143,14.6094 -3.4222,20.1369 -2.282,5.5266 -5.3962,10.0878 -9.3444,13.6866 -3.9483,3.5949 -8.5134,6.2264 -13.6876,7.8965 -5.1761,1.6661 -10.6592,2.5012 -16.4503,2.5012 -8.0712,0 -15.1819,-1.5389 -21.3175,-4.6066 -6.1464,-3.0718 -11.2801,-7.1977 -15.4001,-12.3708 -4.1259,-5.1782 -7.2391,-11.1874 -9.3445,-18.0316 -2.1054,-6.8433 -3.1576,-14.04 -3.1576,-21.5821 v -76.5957 h -5.2649 v 135.2912 z" />
      <path
         inkscape:label="i"
         d="m 1684.2626,-2042.8243 h 5.9428 v -135.2912 h -5.9428 z m 0,31.9826 h 5.9428 v -5.9223 h -5.9428 z"
         style="fill:#3a6ea5;fill-opacity:1;fill-rule:nonzero;stroke:none;stroke-width:1.27659571"
         id="path1135"
         inkscape:connector-curvature="0" />
      <path
         inkscape:label="w"
         inkscape:connector-curvature="0"
         id="path1137"
         style="fill:#3a6ea5;fill-opacity:1;fill-rule:nonzero;stroke:none;stroke-width:1.27659571"
         d="m 1472.9762,-2042.8243 -43.168,-135.2912 h -6.8433 l -42.1139,130.0282 h -0.5271 l -42.3763,-130.0282 h -7.3714 l -41.8503,135.2912 h 4.9995 l 40.2739,-130.0272 h 0.5261 l 41.8513,130.0272 h 8.16 l 41.5878,-130.0272 h 0.5261 l 41.0606,130.0272 z" />
    </g>
    <g
       transform="matrix(0.27634259,0,0,-0.27634259,-871.06712,-487.46859)"
       inkscape:label="Logo Dark"
       id="g175"
       style="stroke-width:1.27659571"
       inkscape:export-xdpi="600"
       inkscape:export-ydpi="600">
      <path
         style="fill:#3a6ea5;fill-opacity:1;fill-rule:nonzero;stroke:none;stroke-width:1.33333325"
         d="m 4000,182.51953 v 300 h 300 v -300 z m 320,0 v 300 h 300 v -300 z m 320,0 v 300 h 300 v -300 z m -640,320 v 300 h 300 v -300 z m 320,0 v 300 h 300 v -300 z m 320,0 v 300 h 300 v -300 z m -640,320 v 299.99997 h 300 V 822.51953 Z m 320,0 v 299.99997 h 300 V 822.51953 Z m 320,0 v 299.99997 h 300 V 822.51953 Z"
         transform="matrix(0.95744682,0,0,-0.95744682,279.78722,-1764.0009)"
         id="path177"
         inkscape:connector-curvature="0"
         inkscape:label="BG" />
      <path
         inkscape:label="x"
         d="m 4918.6023,-2652.6956 -49.4862,-65.2762 54.2211,-70.014 h -6.5797 l -51.0616,66.0648 -50.798,-66.0648 h -6.3201 l 53.9586,70.014 -49.2217,65.2762 h 6.8462 l 45.535,-61.327 46.5872,61.327 z"
         style="fill:#ffffff;fill-opacity:1;fill-rule:nonzero;stroke:none;stroke-width:1.27659571"
         id="path235"
         inkscape:connector-curvature="0" />
      <path
         inkscape:label="o2"
         d="m 4507.2781,-2745.083 c 2.3781,-7.8954 5.9408,-14.872 10.699,-20.9236 4.7532,-6.0556 10.6039,-10.8843 17.5599,-14.4782 6.956,-3.5998 15.0124,-5.3943 24.1712,-5.3943 8.9766,0 16.9429,1.7945 23.9009,5.3943 6.954,3.5939 12.8096,8.4226 17.5648,14.4782 4.7542,6.0516 8.3169,13.0282 10.697,20.9236 2.3752,7.8975 3.5657,16.1424 3.5657,24.7426 0,8.4236 -1.1905,16.5836 -3.5657,24.4791 -2.3801,7.8955 -5.9428,14.871 -10.697,20.9247 -4.7552,6.0546 -10.6108,10.9247 -17.5648,14.6084 -6.958,3.6867 -14.9243,5.5295 -23.9009,5.5295 -9.1588,0 -17.2152,-1.8428 -24.1712,-5.5295 -6.956,-3.6837 -12.8067,-8.5538 -17.5599,-14.6084 -4.7582,-6.0537 -8.3209,-13.0292 -10.699,-20.9247 -2.3791,-7.8955 -3.5686,-16.0555 -3.5686,-24.4791 0,-8.6002 1.1895,-16.8451 3.5686,-24.7426 m -4.8869,51.4594 c 2.6425,8.5094 6.5588,16.0101 11.7538,22.5039 5.192,6.4909 11.5745,11.7134 19.1486,15.6617 7.5681,3.9482 16.3753,5.9223 26.4146,5.9223 9.8571,0 18.5742,-1.9741 26.1463,-5.9223 7.5671,-3.9483 13.9546,-9.1708 19.1476,-15.6617 5.193,-6.4938 9.1122,-13.9945 11.7558,-22.5039 2.6405,-8.5134 3.9598,-17.4167 3.9598,-26.7168 0,-9.301 -1.3193,-18.2082 -3.9598,-26.7177 -2.6436,-8.5133 -6.5628,-16.013 -11.7558,-22.5039 -5.193,-6.4929 -11.5805,-11.672 -19.1476,-15.5284 -7.5721,-3.8574 -16.3764,-5.7911 -26.4127,-5.7911 -9.863,0 -18.5801,1.9337 -26.1482,5.7911 -7.5741,3.8564 -13.9566,9.0355 -19.1486,15.5284 -5.195,6.4909 -9.1113,13.9906 -11.7538,22.5039 -2.6406,8.5095 -3.9599,17.4167 -3.9599,26.7177 0,9.3001 1.3193,18.2034 3.9599,26.7168"
         style="fill:#ffffff;fill-opacity:1;fill-rule:nonzero;stroke:none;stroke-width:1.27659571"
         id="path231"
         inkscape:connector-curvature="0" />
      <path
         inkscape:label="b"
         d="m 4203.3125,-2745.61 c 2.4548,-7.8945 6.0092,-14.8296 10.6602,-20.7934 4.6461,-5.9668 10.3967,-10.7037 17.241,-14.2127 6.8423,-3.5129 14.5611,-5.263 23.1603,-5.263 8.772,0 16.4533,1.7501 23.0321,5.263 6.5807,3.509 12.0184,8.2923 16.32,14.345 4.2967,6.0546 7.5421,13.0291 9.7403,20.9256 2.1913,7.8975 3.2889,16.1433 3.2889,24.7436 0,7.8945 -1.0118,15.7465 -3.0293,23.5561 -2.0166,7.8057 -5.1298,14.8257 -9.3425,21.0579 -4.2118,6.2254 -9.6071,11.3167 -16.1868,15.2649 -6.5827,3.9502 -14.5216,5.9243 -23.8227,5.9243 -16.4937,0 -29.74,-5.6598 -39.7449,-16.9784 -10.0008,-11.3186 -15.0023,-27.5971 -15.0023,-48.8248 0,-8.7779 1.226,-17.1097 3.6857,-25.0081 m -3.1586,55.0127 c 3.1586,12.281 9.385,22.196 18.686,29.743 9.3011,7.5441 21.1448,11.3186 35.5341,11.3186 9.3011,0 17.547,-1.9326 24.7446,-5.7901 7.1927,-3.8623 13.2029,-9.0394 18.0296,-15.5303 4.8228,-6.4939 8.5095,-14.04 11.0561,-22.6353 2.5416,-8.6012 3.8159,-17.6367 3.8159,-27.1105 0,-10.1815 -1.3167,-19.5704 -3.9482,-28.1657 -2.6305,-8.6003 -6.4504,-16.0151 -11.4499,-22.2404 -5.0014,-6.2323 -11.055,-11.1025 -18.1638,-14.6085 -7.1059,-3.509 -15.1336,-5.265 -24.0843,-5.265 -13.8622,0 -25.4888,3.7716 -34.8757,11.3186 -9.3889,7.5411 -15.8374,17.3713 -19.3444,29.4805 h -0.5271 v -37.904 h -5.2639 v 187.9359 h 5.2639 v -90.5468 z"
         style="fill:#ffffff;fill-opacity:1;fill-rule:nonzero;stroke:none;stroke-width:1.27659571"
         id="path227"
         inkscape:connector-curvature="0" />
      <path
         d="m 4958.0831,-2345.8358 -43.167,-135.7567 h -6.8433 l -42.1148,130.4756 h -0.5281 l -42.3754,-130.4756 h -7.3713 l -41.8513,135.7567 h 5.0014 l 40.271,-130.4755 h 0.5271 l 41.8523,130.4755 h 8.159 l 41.5887,-130.4755 h 0.5251 l 41.0627,130.4755 z"
         style="fill:#ffffff;fill-opacity:1;fill-rule:nonzero;stroke:none;stroke-width:1.27659571"
         id="path223"
         inkscape:connector-curvature="0"
         inkscape:label="w2" />
      <path
         inkscape:label="o2"
         d="m 4507.2796,-2438.5426 c 2.3771,-7.9218 5.9408,-14.9223 10.698,-20.9959 4.7542,-6.0764 10.6049,-10.9218 17.5619,-14.5281 6.955,-3.6122 15.0114,-5.4128 24.1682,-5.4128 8.9786,0 16.9449,1.8006 23.9009,5.4128 6.955,3.6063 12.8106,8.4517 17.5658,14.5281 4.7533,6.0736 8.3199,13.0741 10.698,20.9959 2.3751,7.9246 3.5627,16.199 3.5627,24.8279 0,8.4536 -1.1876,16.6407 -3.5627,24.5644 -2.3781,7.9227 -5.9447,14.9223 -10.698,20.9968 -4.7552,6.0755 -10.6108,10.9615 -17.5658,14.6589 -6.956,3.6984 -14.9223,5.5476 -23.9009,5.5476 -9.1568,0 -17.2132,-1.8492 -24.1682,-5.5476 -6.957,-3.6974 -12.8077,-8.5834 -17.5619,-14.6589 -4.7572,-6.0745 -8.3209,-13.0741 -10.698,-20.9968 -2.3781,-7.9237 -3.5667,-16.1108 -3.5667,-24.5644 0,-8.6289 1.1886,-16.9033 3.5667,-24.8279 m -4.8869,51.6367 c 2.6405,8.5388 6.5578,16.0653 11.7528,22.5816 5.193,6.5132 11.5765,11.7538 19.1506,15.7156 7.5661,3.9629 16.3743,5.9428 26.4116,5.9428 9.8591,0 18.5742,-1.9799 26.1473,-5.9428 7.5681,-3.9618 13.9536,-9.2024 19.1476,-15.7156 5.192,-6.5163 9.1132,-14.0428 11.7538,-22.5816 2.6425,-8.5417 3.9618,-17.4767 3.9618,-26.8088 0,-9.3331 -1.3193,-18.2701 -3.9618,-26.8089 -2.6406,-8.5427 -6.5618,-16.0692 -11.7538,-22.5815 -5.194,-6.5163 -11.5795,-11.7132 -19.1476,-15.583 -7.5731,-3.8707 -16.3773,-5.81 -26.4127,-5.81 -9.862,0 -18.5801,1.9393 -26.1462,5.81 -7.5741,3.8698 -13.9576,9.0667 -19.1506,15.583 -5.195,6.5123 -9.1123,14.0388 -11.7528,22.5815 -2.6416,8.5388 -3.9619,17.4758 -3.9619,26.8089 0,9.3321 1.3203,18.2671 3.9619,26.8088"
         style="fill:#ffffff;fill-opacity:1;fill-rule:nonzero;stroke:none;stroke-width:1.27659571"
         id="path219"
         inkscape:connector-curvature="0" />
      <path
         d="m 4291.7505,-2364.9834 c -10.0009,11.3567 -23.2512,17.036 -39.7429,17.036 -9.1284,0 -17.0238,-1.981 -23.6904,-5.9438 -6.6696,-3.9618 -12.1073,-9.0707 -16.321,-15.3185 -4.2089,-6.2528 -7.326,-13.296 -9.3426,-21.1305 -2.0215,-7.8365 -3.0263,-15.7157 -3.0263,-23.6374 0,-8.6299 1.0927,-16.9042 3.2899,-24.8279 2.1922,-7.9237 5.4367,-14.9233 9.7383,-20.9978 4.2987,-6.0745 9.7393,-10.8743 16.319,-14.3954 6.5808,-3.525 14.2561,-5.2811 23.0331,-5.2811 8.772,0 16.5352,1.7561 23.2926,5.2811 6.7544,3.5211 12.4576,8.2743 17.1096,14.2627 4.6481,5.9834 8.2005,12.9433 10.6603,20.865 2.4558,7.9247 3.6837,16.2872 3.6837,25.0934 0,21.3019 -4.9985,37.6356 -15.0033,48.9942 m 20.2692,71.9739 v -188.583 h -5.2659 v 38.0338 h -0.5241 c -3.514,-12.151 -9.9634,-22.015 -19.3474,-29.5822 -9.3879,-7.574 -21.0164,-11.3576 -34.8747,-11.3576 -8.9507,0 -16.9784,1.762 -24.0862,5.2821 -7.1059,3.5201 -13.1585,8.4061 -18.1609,14.6589 -5.0015,6.2478 -8.8184,13.6882 -11.4489,22.3181 -2.6335,8.6239 -3.9483,18.0472 -3.9483,28.2618 0,9.5075 1.2704,18.5741 3.816,27.204 2.5407,8.625 6.2264,16.1981 11.0541,22.7153 4.8257,6.5113 10.8339,11.7063 18.0316,15.5829 7.1917,3.8708 15.4385,5.8101 24.7426,5.8101 14.3854,0 26.231,-3.7885 35.5321,-11.3586 9.3001,-7.5731 15.5304,-17.5223 18.69,-29.8446 h 0.5241 v 90.859 z"
         style="fill:#ffffff;fill-opacity:1;fill-rule:nonzero;stroke:none;stroke-width:1.27659571"
         id="path215"
         inkscape:connector-curvature="0"
         inkscape:label="d" />
      <path
         d="m 4819.8954,-2042.8243 v -33.4287 h 0.5261 c 1.226,5.2659 3.1981,10.0897 5.9224,14.4791 2.7183,4.3845 6.1405,8.2449 10.2664,11.5812 4.119,3.3303 8.9023,5.9194 14.3429,7.7642 5.4387,1.8428 11.4894,2.7637 18.1619,2.7637 7.016,0 13.4664,-1.0531 19.3463,-3.1595 5.878,-2.1044 10.9653,-5.2235 15.2669,-9.3435 4.2986,-4.1249 7.6339,-9.2122 10.0028,-15.2659 2.368,-6.0526 3.5534,-13.0291 3.5534,-20.9266 v -89.7552 h -5.2649 v 88.9656 c 0,7.8974 -1.143,14.6094 -3.4222,20.1369 -2.282,5.5266 -5.3962,10.0878 -9.3444,13.6866 -3.9483,3.5949 -8.5134,6.2264 -13.6876,7.8965 -5.1761,1.6661 -10.6592,2.5012 -16.4503,2.5012 -8.0712,0 -15.1819,-1.5389 -21.3175,-4.6066 -6.1464,-3.0718 -11.2801,-7.1977 -15.4001,-12.3708 -4.1259,-5.1782 -7.2391,-11.1874 -9.3445,-18.0316 -2.1054,-6.8433 -3.1576,-14.04 -3.1576,-21.5821 v -76.5957 h -5.2649 v 135.2912 z"
         style="fill:#ffffff;fill-opacity:1;fill-rule:nonzero;stroke:none;stroke-width:1.27659571"
         id="path211"
         inkscape:connector-curvature="0"
         inkscape:label="n" />
      <path
         inkscape:connector-curvature="0"
         id="path199"
         style="fill:#ffffff;fill-opacity:1;fill-rule:nonzero;stroke:none;stroke-width:1.27659571"
         d="m 4556.6031,-2042.8243 h 5.9428 v -135.2912 h -5.9428 z m 0,31.9826 h 5.9428 v -5.9223 h -5.9428 z"
         inkscape:label="i" />
      <path
         d="m 4345.3167,-2042.8243 -43.168,-135.2912 h -6.8433 l -42.1139,130.0282 h -0.5271 l -42.3763,-130.0282 h -7.3714 l -41.8503,135.2912 h 4.9995 l 40.2739,-130.0272 h 0.5261 l 41.8513,130.0272 h 8.16 l 41.5878,-130.0272 h 0.5261 l 41.0606,130.0272 z"
         style="fill:#ffffff;fill-opacity:1;fill-rule:nonzero;stroke:none;stroke-width:1.27659571"
         id="path197"
         inkscape:connector-curvature="0"
         inkscape:label="w" />
    </g>
    <path
       style="fill:#3a6ea5;fill-opacity:1;stroke:none;stroke-width:3.96875;stroke-linecap:butt;stroke-linejoin:miter;stroke-miterlimit:4;stroke-dasharray:none;stroke-dashoffset:0;stroke-opacity:1;paint-order:normal"
       d="M 0,48.291658 V 127.66666 H 79.375 V 48.291658 Z m 84.66666,0 v 79.375002 h 79.375 V 48.291658 Z m 84.66667,0 V 127.66666 H 248.7083 V 48.291658 Z M 0,132.95832 v 79.375 h 79.375 v -79.375 z m 84.66666,0 v 79.375 h 79.375 v -79.375 z m 84.66667,0 v 79.375 h 79.37497 v -79.375 z M 0,217.62499 v 79.375 h 79.375 v -79.375 z m 84.66666,0 v 79.375 h 79.375 v -79.375 z m 84.66667,0 v 79.375 h 79.37497 v -79.375 z"
       id="rect6157"
       inkscape:connector-curvature="0"
       inkscape:label="Logo Outline"
       inkscape:export-xdpi="1.6340427"
       inkscape:export-ydpi="1.6340427" />
    <path
       inkscape:label="Hamburger"
       inkscape:connector-curvature="0"
       id="path5444"
       transform="matrix(0.26458333,0,0,0.26458333,0,-252.48237)"
       d="m 2050,402.51953 v 100 c 182.9486,8e-5 334.6626,-4e-5 500,0 v -100 z m 0,200 v 100 c 182.9486,8e-5 334.6626,-4e-5 500,0 v -100 z m 0,200 v 100 c 182.9486,8e-5 334.6626,-4e-5 500,0 v -100 z"
       style="display:inline;fill:#ffffff;fill-opacity:1;stroke:none;stroke-width:15;stroke-linecap:butt;stroke-linejoin:miter;stroke-miterlimit:4;stroke-dasharray:none;stroke-opacity:1;filter:url(#filter6332)"
       inkscape:export-xdpi="600.01129"
       inkscape:export-ydpi="600.01129" />
    <path
       style="display:inline;fill:#ffffff;fill-opacity:1;stroke:#000000;stroke-width:3.96875;stroke-linecap:butt;stroke-linejoin:miter;stroke-miterlimit:4;stroke-dasharray:none;stroke-opacity:1;filter:url(#filter6033)"
       d="m 294.51752,13.707757 -18.70887,-18.7088706 74.83547,-74.8354594 -74.83547,-74.835467 18.70887,-18.70886 93.54433,93.544327 z"
       id="path5440"
       inkscape:connector-curvature="0"
       sodipodi:nodetypes="ccccccc"
       inkscape:label="R Arrow"
       inkscape:export-xdpi="600"
       inkscape:export-ydpi="600" />
    <path
       inkscape:label="L Arrow"
       sodipodi:nodetypes="ccccccc"
       inkscape:connector-curvature="0"
       id="path5436"
       d="m 104.76965,-173.3809 18.70887,18.70886 -74.835468,74.835467 74.835468,74.8354694 -18.70887,18.7088606 -93.544329,-93.54433 z"
       style="display:inline;fill:#ffffff;fill-opacity:1;stroke:#000000;stroke-width:3.96875;stroke-linecap:butt;stroke-linejoin:miter;stroke-miterlimit:4;stroke-dasharray:none;stroke-opacity:1;filter:url(#filter6021)"
       inkscape:export-xdpi="600.01129"
       inkscape:export-ydpi="600.01129" />
  </g>
</svg>
